<svg width="54" height="32" viewBox="0 0 54 32" fill="none" xmlns="http://www.w3.org/2000/svg">
<path d="M22.9507 19.1154C15.8877 16.7875 1.43518 26.4765 0.64046 27.0518C0.440593 27.8147 3.2316 27.5092 4.65209 27.261C5.77724 27.0118 13.5266 25.6944 17.2607 25.0668C19.1059 24.7379 22.9469 26.0362 24.6367 26.7265C25.877 27.3301 31.8543 29.7521 34.6879 30.8877L35.075 29.3048C35.3875 27.7185 37.3937 21.0394 38.3577 17.8982C39.3345 14.6476 42.3333 11.5613 43.7106 10.4245C48.0261 6.59404 51.0252 3.48107 51.9853 2.40339C53.9518 0.290982 52.1532 0.802531 51.0081 1.32236C42.0657 4.58083 37.305 8.15057 36.0425 9.52813C31.9803 12.504 31.1624 20.5234 31.2613 24.1611C28.3255 20.899 24.4976 19.4381 22.9507 19.1154Z" fill="url(#paint0_linear_185_63)" stroke="black" stroke-width="0.535435"/>
<defs>
<linearGradient id="paint0_linear_185_63" x1="12.1633" y1="17.8074" x2="61.6328" y2="39.3251" gradientUnits="userSpaceOnUse">
<stop stop-color="#B15EF2"/>
<stop offset="1" stop-color="#F23492"/>
</linearGradient>
</defs>
</svg>
